<svg width="178" height="34" viewBox="0 0 178 34" fill="none" xmlns="http://www.w3.org/2000/svg">
<path fill-rule="evenodd" clip-rule="evenodd" d="M1.30886 33.9002H11.78C11.9108 33.9002 12.0417 33.9002 12.1726 33.9002C12.3035 33.9002 12.4344 33.9002 12.5653 33.9002C12.6962 33.9002 12.8271 33.9002 12.958 33.9002C13.3506 33.9002 13.8742 33.7693 14.2668 33.7693C20.6804 32.7222 25.9159 28.1411 27.8793 22.1202C27.8793 21.9893 28.0102 21.8584 28.0102 21.7275C28.0102 21.5966 28.141 21.4657 28.141 21.3349C28.2719 21.0731 28.2719 20.8113 28.2719 20.5495C28.2719 20.4186 28.2719 20.2877 28.4028 20.1569C28.4028 20.026 28.4028 19.8951 28.5337 19.7642C28.5337 19.6333 28.5337 19.5024 28.5337 19.3715C28.5337 19.2406 28.5337 19.1097 28.5337 18.9789C28.5337 18.848 28.5337 18.7171 28.5337 18.5862C28.5337 18.4553 28.5337 18.3244 28.5337 18.1935C28.5337 18.0626 28.5337 17.9318 28.5337 17.8009C28.5337 17.67 28.5337 17.5391 28.5337 17.4082C28.5337 17.2773 28.5337 17.1464 28.5337 17.0155C28.5337 16.8846 28.5337 16.7538 28.5337 16.6229C28.5337 16.492 28.5337 16.3611 28.5337 16.2302C28.5337 16.0993 28.5337 15.9684 28.5337 15.8375C28.5337 15.7066 28.5337 15.5758 28.5337 15.4449C28.5337 15.314 28.5337 15.1831 28.5337 15.0522C28.5337 14.9213 28.5337 14.7904 28.4028 14.6595C28.4028 14.5286 28.4028 14.3978 28.2719 14.2669C28.2719 14.0051 28.141 13.7433 28.141 13.4815C26.4395 6.28266 20.9422 1.178 14.2668 0.261777C13.8742 0.261777 13.4815 0.130889 12.958 0.130889C12.8271 0 12.6962 0 12.5653 0C12.4344 0 12.3035 0 12.0417 0C11.9108 0 11.78 0 11.6491 0H1.30886C0.654415 0 -2.84463e-05 0.523555 0.13086 1.04711C1.70152 5.10466 4.45019 7.59154 7.59152 7.85332H11.5182C11.6491 7.85332 11.78 7.85332 11.78 7.85332C11.9108 7.85332 11.9108 7.85332 12.0417 7.85332C12.1726 7.85332 12.1726 7.85332 12.3035 7.85332C12.4344 7.85332 12.4344 7.85332 12.5653 7.85332C16.6228 8.24599 19.8951 11.3873 20.5495 15.4449C20.5495 15.5758 20.5495 15.5758 20.5495 15.7066C20.5495 15.8375 20.5495 15.8375 20.5495 15.9684C20.5495 16.0993 20.5495 16.0993 20.5495 16.2302C20.5495 16.3611 20.5495 16.3611 20.5495 16.492C20.5495 16.6229 20.5495 16.6229 20.5495 16.7538C20.5495 16.8846 20.5495 16.8846 20.5495 17.0155C20.5495 17.1464 20.5495 17.1464 20.5495 17.2773C20.5495 17.4082 20.5495 17.4082 20.5495 17.5391C20.5495 17.67 20.5495 17.67 20.5495 17.8009C20.5495 17.9318 20.5495 17.9318 20.5495 18.0626C20.5495 18.1935 20.5495 18.1935 20.5495 18.3244C20.5495 18.4553 20.5495 18.4553 20.5495 18.5862C20.5495 18.7171 20.5495 18.7171 20.5495 18.848C20.5495 18.9789 20.5495 18.9789 20.5495 19.1097C20.5495 19.2406 20.5495 19.2406 20.5495 19.3715C19.7642 22.9055 16.7537 25.6542 13.0888 26.3086C12.958 26.3086 12.958 26.3086 12.8271 26.3086C12.6962 26.3086 12.6962 26.3086 12.5653 26.3086C12.4344 26.3086 12.4344 26.3086 12.3035 26.3086C12.1726 26.3086 12.1726 26.3086 12.0417 26.3086C11.9108 26.3086 11.9108 26.3086 11.78 26.3086C11.6491 26.3086 11.6491 26.3086 11.5182 26.3086H7.59152C4.58108 26.1777 1.70152 28.6646 0.13086 32.7222C-2.84463e-05 33.3766 0.654415 33.9002 1.30886 33.9002Z" fill="white"/>
<path d="M12.0418 22.3821C15.0778 22.3821 17.5391 19.9209 17.5391 16.8848C17.5391 13.8487 15.0778 11.3875 12.0418 11.3875C9.00567 11.3875 6.54443 13.8487 6.54443 16.8848C6.54443 19.9209 9.00567 22.3821 12.0418 22.3821Z" fill="white"/>
<path d="M39.9211 1.70166H32.4604V31.1516H39.9211V1.70166Z" fill="white"/>
<path fill-rule="evenodd" clip-rule="evenodd" d="M53.5334 15.5759H57.0674C59.4234 15.5759 61.3867 13.6125 61.3867 11.2565C61.3867 8.90054 59.4234 6.93721 57.0674 6.93721H52.6171C52.6171 15.0523 52.6171 23.0365 52.6171 31.1516H45.1565V1.70166H59.2925C64.3971 1.70166 68.5856 5.8901 68.5856 10.9948C68.5856 14.7905 66.3605 17.9319 63.0882 19.5025L69.5018 31.2825H62.0411L53.5334 15.5759Z" fill="white"/>
<path fill-rule="evenodd" clip-rule="evenodd" d="M91.4911 31.1516V25.2616H80.7583V18.979H88.7425V13.7434H80.7583V7.72254H91.4911V1.70166C85.4703 1.70166 79.1876 1.70166 73.2976 1.70166V31.1516C79.1876 31.1516 85.4703 31.1516 91.4911 31.1516Z" fill="white"/>
<path fill-rule="evenodd" clip-rule="evenodd" d="M117.669 31.1514H108.638C108.507 31.1514 108.376 31.1514 108.245 31.1514C108.114 31.1514 107.983 31.1514 107.852 31.1514C107.721 31.1514 107.59 31.1514 107.46 31.1514C107.067 31.1514 106.674 31.0205 106.412 31.0205C100.784 30.1043 96.2031 26.1777 94.6324 20.8112C94.6324 20.6803 94.5015 20.5494 94.5015 20.4186C94.5015 20.2877 94.5015 20.1568 94.3707 20.0259C94.3707 19.7641 94.2398 19.5023 94.2398 19.3714C94.2398 19.2406 94.2398 19.1097 94.1089 18.9788C94.1089 18.8479 94.1089 18.717 94.1089 18.5861C94.1089 18.4552 94.1089 18.3243 94.1089 18.1934C94.1089 18.0626 94.1089 17.9317 94.1089 17.8008C94.1089 17.6699 94.1089 17.539 94.1089 17.4081C94.1089 17.2772 94.1089 17.1463 94.1089 17.0154C94.1089 16.8846 94.1089 16.7537 94.1089 16.6228C94.1089 16.4919 94.1089 16.361 94.1089 16.2301C94.1089 16.0992 94.1089 15.9683 94.1089 15.8375C94.1089 15.7066 94.1089 15.5757 94.1089 15.4448C94.1089 15.3139 94.1089 15.183 94.1089 15.0521C94.1089 14.9212 94.1089 14.7903 94.1089 14.6595C94.1089 14.5286 94.1089 14.3977 94.1089 14.2668C94.1089 14.1359 94.1089 14.005 94.1089 13.8741C94.1089 13.7432 94.1089 13.6123 94.1089 13.4815C94.1089 13.3506 94.1089 13.2197 94.2398 13.0888C94.2398 12.827 94.3707 12.5652 94.3707 12.4343C95.8104 6.80613 100.522 2.48681 106.412 1.57059C106.805 1.57059 107.198 1.4397 107.46 1.4397C107.59 1.4397 107.721 1.4397 107.852 1.4397C107.983 1.4397 108.114 1.4397 108.245 1.4397C108.376 1.4397 108.507 1.4397 108.638 1.4397H117.669C118.192 1.4397 118.847 1.83236 118.585 2.35592C117.276 5.88991 114.789 8.11502 112.041 8.24591H108.638C108.507 8.24591 108.507 8.24591 108.376 8.24591C108.245 8.24591 108.245 8.24591 108.114 8.24591C107.983 8.24591 107.983 8.24591 107.852 8.24591C107.721 8.24591 107.721 8.24591 107.59 8.24591C104.056 8.63858 101.177 11.2563 100.653 14.9212V15.0521C100.653 15.0521 100.653 15.183 100.653 15.3139C100.653 15.4448 100.653 15.4448 100.653 15.5757C100.653 15.7066 100.653 15.7066 100.653 15.8375C100.653 15.9683 100.653 15.9683 100.653 16.0992C100.653 16.2301 100.653 16.2301 100.653 16.361C100.653 16.4919 100.653 16.4919 100.653 16.6228C100.653 16.7537 100.653 16.7537 100.653 16.8846C100.653 17.0154 100.653 17.0154 100.653 17.1463C100.653 17.2772 100.653 17.2772 100.653 17.4081C100.653 17.4081 100.653 17.539 100.653 17.6699C100.653 17.8008 100.653 17.8008 100.653 17.8008C100.653 17.9317 100.653 17.9317 100.653 17.9317V18.0626V18.1934C101.439 21.3348 103.926 23.6908 107.067 24.2143H107.198C107.198 24.2143 107.329 24.2143 107.46 24.2143C107.59 24.2143 107.59 24.2143 107.721 24.2143C107.852 24.2143 107.852 24.2143 107.983 24.2143C108.114 24.2143 108.114 24.2143 108.245 24.2143C108.376 24.2143 108.376 24.2143 108.507 24.2143H111.91C114.658 24.4761 117.014 26.5703 118.454 30.1043C118.847 30.7588 118.192 31.1514 117.669 31.1514Z" fill="white"/>
<path fill-rule="evenodd" clip-rule="evenodd" d="M121.988 1.70166H145.548V7.72254H137.564V31.1516H130.103V7.72254H121.988V1.70166Z" fill="white"/>
<path fill-rule="evenodd" clip-rule="evenodd" d="M149.344 1.70166H156.805L163.48 21.4658L170.155 1.70166H177.616L166.36 31.1516H160.47L149.344 1.70166Z" fill="white"/>
</svg>
